<mxfile host="app.diagrams.net" modified="2021-11-16T14:37:13.224Z" agent="5.0 (X11; Linux x86_64) AppleWebKit/537.36 (KHTML, like Gecko) Chrome/95.0.4638.69 Safari/537.36" etag="9gF3uHiSD_ZpyYedpN7P" version="15.7.3" type="github">
  <diagram id="agUBH981tSHvttuCAfrt" name="Page-1">
    <mxGraphModel dx="1248" dy="710" grid="1" gridSize="10" guides="1" tooltips="1" connect="1" arrows="1" fold="1" page="1" pageScale="1" pageWidth="850" pageHeight="1100" math="0" shadow="0">
      <root>
        <mxCell id="0" />
        <mxCell id="1" parent="0" />
        <mxCell id="6p1vlQ0GJCw1Co-W3nL5-1" value="&lt;h1&gt;Observações&lt;/h1&gt;&lt;p&gt;- Trabalha no time de Process Hacking desde à entrada na empresa;&lt;/p&gt;&lt;p&gt;- Atualmente E1 -&amp;gt; E2: Base técnica, testes unitários e CI/CD.&lt;/p&gt;&lt;p&gt;&lt;br&gt;&lt;/p&gt;" style="text;html=1;strokeColor=#d6b656;fillColor=#fff2cc;spacing=5;spacingTop=-20;whiteSpace=wrap;overflow=hidden;rounded=0;" parent="1" vertex="1">
          <mxGeometry x="10" y="10" width="190" height="150" as="geometry" />
        </mxCell>
        <mxCell id="6p1vlQ0GJCw1Co-W3nL5-2" style="edgeStyle=orthogonalEdgeStyle;rounded=0;orthogonalLoop=1;jettySize=auto;html=1;" parent="1" source="6p1vlQ0GJCw1Co-W3nL5-5" target="6p1vlQ0GJCw1Co-W3nL5-8" edge="1">
          <mxGeometry relative="1" as="geometry" />
        </mxCell>
        <mxCell id="6p1vlQ0GJCw1Co-W3nL5-3" style="edgeStyle=orthogonalEdgeStyle;rounded=0;orthogonalLoop=1;jettySize=auto;html=1;" parent="1" source="6p1vlQ0GJCw1Co-W3nL5-5" target="6p1vlQ0GJCw1Co-W3nL5-34" edge="1">
          <mxGeometry relative="1" as="geometry" />
        </mxCell>
        <mxCell id="6p1vlQ0GJCw1Co-W3nL5-4" style="edgeStyle=orthogonalEdgeStyle;rounded=0;orthogonalLoop=1;jettySize=auto;html=1;" parent="1" source="6p1vlQ0GJCw1Co-W3nL5-5" target="6p1vlQ0GJCw1Co-W3nL5-35" edge="1">
          <mxGeometry relative="1" as="geometry" />
        </mxCell>
        <mxCell id="6p1vlQ0GJCw1Co-W3nL5-5" value="HTML" style="whiteSpace=wrap;html=1;aspect=fixed;fillColor=#d5e8d4;strokeColor=#82b366;" parent="1" vertex="1">
          <mxGeometry x="350" y="80" width="80" height="80" as="geometry" />
        </mxCell>
        <mxCell id="6p1vlQ0GJCw1Co-W3nL5-6" style="edgeStyle=orthogonalEdgeStyle;rounded=0;orthogonalLoop=1;jettySize=auto;html=1;" parent="1" source="6p1vlQ0GJCw1Co-W3nL5-7" target="6p1vlQ0GJCw1Co-W3nL5-9" edge="1">
          <mxGeometry relative="1" as="geometry" />
        </mxCell>
        <mxCell id="6p1vlQ0GJCw1Co-W3nL5-7" value="CSS" style="whiteSpace=wrap;html=1;aspect=fixed;fillColor=#d5e8d4;strokeColor=#82b366;" parent="1" vertex="1">
          <mxGeometry x="470" y="80" width="80" height="80" as="geometry" />
        </mxCell>
        <mxCell id="6p1vlQ0GJCw1Co-W3nL5-8" value="Semantic HTML" style="text;html=1;strokeColor=none;fillColor=none;align=center;verticalAlign=middle;whiteSpace=wrap;rounded=0;" parent="1" vertex="1">
          <mxGeometry x="210" y="90" width="110" height="20" as="geometry" />
        </mxCell>
        <mxCell id="6p1vlQ0GJCw1Co-W3nL5-9" value="Grid/Flexbox&lt;br&gt;Web Responsive&lt;br&gt;Media Queries&lt;br&gt;Mobile First" style="text;html=1;strokeColor=none;fillColor=none;align=center;verticalAlign=middle;whiteSpace=wrap;rounded=0;" parent="1" vertex="1">
          <mxGeometry x="590" y="110" width="110" height="20" as="geometry" />
        </mxCell>
        <mxCell id="6p1vlQ0GJCw1Co-W3nL5-10" style="edgeStyle=orthogonalEdgeStyle;rounded=0;orthogonalLoop=1;jettySize=auto;html=1;" parent="1" source="6p1vlQ0GJCw1Co-W3nL5-13" target="6p1vlQ0GJCw1Co-W3nL5-14" edge="1">
          <mxGeometry relative="1" as="geometry" />
        </mxCell>
        <mxCell id="6p1vlQ0GJCw1Co-W3nL5-11" style="edgeStyle=orthogonalEdgeStyle;rounded=0;orthogonalLoop=1;jettySize=auto;html=1;" parent="1" source="6p1vlQ0GJCw1Co-W3nL5-13" target="6p1vlQ0GJCw1Co-W3nL5-15" edge="1">
          <mxGeometry relative="1" as="geometry" />
        </mxCell>
        <mxCell id="6p1vlQ0GJCw1Co-W3nL5-12" style="edgeStyle=orthogonalEdgeStyle;rounded=0;orthogonalLoop=1;jettySize=auto;html=1;entryX=0.5;entryY=0;entryDx=0;entryDy=0;" parent="1" source="6p1vlQ0GJCw1Co-W3nL5-13" target="6p1vlQ0GJCw1Co-W3nL5-25" edge="1">
          <mxGeometry relative="1" as="geometry" />
        </mxCell>
        <mxCell id="9mveYApbmtlLo5inXnCP-2" style="edgeStyle=orthogonalEdgeStyle;rounded=0;orthogonalLoop=1;jettySize=auto;html=1;" parent="1" source="6p1vlQ0GJCw1Co-W3nL5-13" target="9mveYApbmtlLo5inXnCP-3" edge="1">
          <mxGeometry relative="1" as="geometry">
            <mxPoint x="520" y="270" as="targetPoint" />
          </mxGeometry>
        </mxCell>
        <mxCell id="wWRz1BCfIXu3STuvE5zI-3" style="edgeStyle=orthogonalEdgeStyle;rounded=0;orthogonalLoop=1;jettySize=auto;html=1;" parent="1" source="6p1vlQ0GJCw1Co-W3nL5-13" target="wWRz1BCfIXu3STuvE5zI-1" edge="1">
          <mxGeometry relative="1" as="geometry" />
        </mxCell>
        <mxCell id="6p1vlQ0GJCw1Co-W3nL5-13" value="JavaScript" style="whiteSpace=wrap;html=1;aspect=fixed;fillColor=#d5e8d4;strokeColor=#82b366;" parent="1" vertex="1">
          <mxGeometry x="410" y="200" width="80" height="80" as="geometry" />
        </mxCell>
        <mxCell id="6p1vlQ0GJCw1Co-W3nL5-14" value="Syntax and Operations&lt;br&gt;DOM Manipulation&lt;br&gt;ECMA 6&lt;br&gt;Hosting &amp;amp; Event Bubbling&lt;br&gt;Prototyping &amp;amp; Classes" style="text;html=1;strokeColor=none;fillColor=none;align=center;verticalAlign=middle;whiteSpace=wrap;rounded=0;" parent="1" vertex="1">
          <mxGeometry x="210" y="230" width="170" height="20" as="geometry" />
        </mxCell>
        <mxCell id="6p1vlQ0GJCw1Co-W3nL5-15" value="Eloquent JS" style="text;html=1;strokeColor=none;fillColor=none;align=center;verticalAlign=middle;whiteSpace=wrap;rounded=0;" parent="1" vertex="1">
          <mxGeometry x="530" y="180" width="110" height="32" as="geometry" />
        </mxCell>
        <mxCell id="9mveYApbmtlLo5inXnCP-4" value="&amp;nbsp;" style="text;html=1;align=center;verticalAlign=middle;resizable=0;points=[];autosize=1;rotation=90;" parent="6p1vlQ0GJCw1Co-W3nL5-15" vertex="1">
          <mxGeometry x="55" y="12" width="20" height="20" as="geometry" />
        </mxCell>
        <mxCell id="6p1vlQ0GJCw1Co-W3nL5-16" style="edgeStyle=orthogonalEdgeStyle;rounded=0;orthogonalLoop=1;jettySize=auto;html=1;exitX=0.5;exitY=1;exitDx=0;exitDy=0;" parent="1" source="6p1vlQ0GJCw1Co-W3nL5-15" target="6p1vlQ0GJCw1Co-W3nL5-15" edge="1">
          <mxGeometry relative="1" as="geometry" />
        </mxCell>
        <mxCell id="6p1vlQ0GJCw1Co-W3nL5-17" style="edgeStyle=orthogonalEdgeStyle;rounded=0;orthogonalLoop=1;jettySize=auto;html=1;entryX=1;entryY=0.5;entryDx=0;entryDy=0;" parent="1" source="6p1vlQ0GJCw1Co-W3nL5-20" target="6p1vlQ0GJCw1Co-W3nL5-5" edge="1">
          <mxGeometry relative="1" as="geometry" />
        </mxCell>
        <mxCell id="6p1vlQ0GJCw1Co-W3nL5-18" style="edgeStyle=orthogonalEdgeStyle;rounded=0;orthogonalLoop=1;jettySize=auto;html=1;entryX=0;entryY=0.5;entryDx=0;entryDy=0;" parent="1" source="6p1vlQ0GJCw1Co-W3nL5-20" target="6p1vlQ0GJCw1Co-W3nL5-7" edge="1">
          <mxGeometry relative="1" as="geometry" />
        </mxCell>
        <mxCell id="6p1vlQ0GJCw1Co-W3nL5-19" style="edgeStyle=orthogonalEdgeStyle;rounded=0;orthogonalLoop=1;jettySize=auto;html=1;" parent="1" source="6p1vlQ0GJCw1Co-W3nL5-20" target="6p1vlQ0GJCw1Co-W3nL5-13" edge="1">
          <mxGeometry relative="1" as="geometry" />
        </mxCell>
        <mxCell id="6p1vlQ0GJCw1Co-W3nL5-20" value="&lt;h1&gt;Start&lt;/h1&gt;" style="text;html=1;strokeColor=none;fillColor=none;spacing=5;spacingTop=-20;whiteSpace=wrap;overflow=hidden;rounded=0;" parent="1" vertex="1">
          <mxGeometry x="415" y="10" width="70" height="30" as="geometry" />
        </mxCell>
        <mxCell id="6p1vlQ0GJCw1Co-W3nL5-22" value="" style="edgeStyle=orthogonalEdgeStyle;rounded=0;orthogonalLoop=1;jettySize=auto;html=1;" parent="1" source="6p1vlQ0GJCw1Co-W3nL5-25" target="6p1vlQ0GJCw1Co-W3nL5-28" edge="1">
          <mxGeometry relative="1" as="geometry" />
        </mxCell>
        <mxCell id="6p1vlQ0GJCw1Co-W3nL5-23" style="edgeStyle=orthogonalEdgeStyle;rounded=0;orthogonalLoop=1;jettySize=auto;html=1;" parent="1" source="6p1vlQ0GJCw1Co-W3nL5-25" target="6p1vlQ0GJCw1Co-W3nL5-30" edge="1">
          <mxGeometry relative="1" as="geometry" />
        </mxCell>
        <mxCell id="6p1vlQ0GJCw1Co-W3nL5-24" style="edgeStyle=orthogonalEdgeStyle;rounded=0;orthogonalLoop=1;jettySize=auto;html=1;" parent="1" source="6p1vlQ0GJCw1Co-W3nL5-25" target="6p1vlQ0GJCw1Co-W3nL5-37" edge="1">
          <mxGeometry relative="1" as="geometry">
            <mxPoint x="640" y="360" as="targetPoint" />
            <Array as="points" />
          </mxGeometry>
        </mxCell>
        <mxCell id="hISglGd7XBu-Tsz0KGXN-2" style="edgeStyle=orthogonalEdgeStyle;rounded=0;orthogonalLoop=1;jettySize=auto;html=1;" parent="1" source="6p1vlQ0GJCw1Co-W3nL5-25" target="hISglGd7XBu-Tsz0KGXN-1" edge="1">
          <mxGeometry relative="1" as="geometry" />
        </mxCell>
        <mxCell id="_Mu3jGa9Z7ArrBiEgI-9-2" value="" style="edgeStyle=orthogonalEdgeStyle;rounded=0;orthogonalLoop=1;jettySize=auto;html=1;" edge="1" parent="1" source="6p1vlQ0GJCw1Co-W3nL5-25" target="_Mu3jGa9Z7ArrBiEgI-9-1">
          <mxGeometry relative="1" as="geometry" />
        </mxCell>
        <mxCell id="6p1vlQ0GJCw1Co-W3nL5-25" value="General Skills" style="whiteSpace=wrap;html=1;aspect=fixed;fillColor=#fff2cc;strokeColor=#d6b656;" parent="1" vertex="1">
          <mxGeometry x="410" y="320" width="80" height="80" as="geometry" />
        </mxCell>
        <mxCell id="6p1vlQ0GJCw1Co-W3nL5-27" style="edgeStyle=orthogonalEdgeStyle;rounded=0;orthogonalLoop=1;jettySize=auto;html=1;" parent="1" source="6p1vlQ0GJCw1Co-W3nL5-28" target="6p1vlQ0GJCw1Co-W3nL5-31" edge="1">
          <mxGeometry relative="1" as="geometry" />
        </mxCell>
        <mxCell id="6p1vlQ0GJCw1Co-W3nL5-28" value="Build Tools" style="whiteSpace=wrap;html=1;aspect=fixed;" parent="1" vertex="1">
          <mxGeometry x="300" y="440" width="80" height="80" as="geometry" />
        </mxCell>
        <mxCell id="6p1vlQ0GJCw1Co-W3nL5-29" style="edgeStyle=orthogonalEdgeStyle;rounded=0;orthogonalLoop=1;jettySize=auto;html=1;" parent="1" source="6p1vlQ0GJCw1Co-W3nL5-30" target="6p1vlQ0GJCw1Co-W3nL5-33" edge="1">
          <mxGeometry relative="1" as="geometry" />
        </mxCell>
        <mxCell id="6p1vlQ0GJCw1Co-W3nL5-30" value="Styling" style="whiteSpace=wrap;html=1;aspect=fixed;" parent="1" vertex="1">
          <mxGeometry x="530" y="440" width="80" height="80" as="geometry" />
        </mxCell>
        <mxCell id="6p1vlQ0GJCw1Co-W3nL5-31" value="NPM/Yarn&lt;br&gt;Webpack&lt;br&gt;NPM Scripts" style="text;html=1;strokeColor=none;fillColor=none;align=center;verticalAlign=middle;whiteSpace=wrap;rounded=0;" parent="1" vertex="1">
          <mxGeometry x="140" y="470" width="100" height="20" as="geometry" />
        </mxCell>
        <mxCell id="6p1vlQ0GJCw1Co-W3nL5-32" style="edgeStyle=orthogonalEdgeStyle;rounded=0;orthogonalLoop=1;jettySize=auto;html=1;exitX=0.5;exitY=1;exitDx=0;exitDy=0;" parent="1" source="6p1vlQ0GJCw1Co-W3nL5-31" target="6p1vlQ0GJCw1Co-W3nL5-31" edge="1">
          <mxGeometry relative="1" as="geometry" />
        </mxCell>
        <mxCell id="6p1vlQ0GJCw1Co-W3nL5-33" value="SASS&lt;br&gt;Bootstrap/MaterialUI/Bulma&lt;br&gt;Atomic Architecture&lt;br&gt;BEM Architecture" style="text;html=1;strokeColor=none;fillColor=none;align=center;verticalAlign=middle;whiteSpace=wrap;rounded=0;" parent="1" vertex="1">
          <mxGeometry x="650" y="470" width="170" height="20" as="geometry" />
        </mxCell>
        <mxCell id="6p1vlQ0GJCw1Co-W3nL5-34" value="Basic SEO" style="text;html=1;strokeColor=none;fillColor=none;align=center;verticalAlign=middle;whiteSpace=wrap;rounded=0;" parent="1" vertex="1">
          <mxGeometry x="210" y="130" width="110" height="20" as="geometry" />
        </mxCell>
        <mxCell id="6p1vlQ0GJCw1Co-W3nL5-35" value="&lt;span&gt;Acessibility&lt;/span&gt;" style="text;html=1;align=center;verticalAlign=middle;resizable=0;points=[];autosize=1;strokeColor=none;" parent="1" vertex="1">
          <mxGeometry x="230" y="110" width="70" height="20" as="geometry" />
        </mxCell>
        <mxCell id="6p1vlQ0GJCw1Co-W3nL5-36" style="edgeStyle=orthogonalEdgeStyle;rounded=0;orthogonalLoop=1;jettySize=auto;html=1;" parent="1" source="6p1vlQ0GJCw1Co-W3nL5-37" target="6p1vlQ0GJCw1Co-W3nL5-38" edge="1">
          <mxGeometry relative="1" as="geometry" />
        </mxCell>
        <mxCell id="6p1vlQ0GJCw1Co-W3nL5-37" value="Linters" style="whiteSpace=wrap;html=1;aspect=fixed;fillColor=#fff2cc;strokeColor=#d6b656;" parent="1" vertex="1">
          <mxGeometry x="620" y="320" width="80" height="80" as="geometry" />
        </mxCell>
        <mxCell id="6p1vlQ0GJCw1Co-W3nL5-38" value="Prettier&lt;br&gt;EsLint" style="text;html=1;align=center;verticalAlign=middle;resizable=0;points=[];autosize=1;strokeColor=none;" parent="1" vertex="1">
          <mxGeometry x="730" y="345" width="50" height="30" as="geometry" />
        </mxCell>
        <mxCell id="6p1vlQ0GJCw1Co-W3nL5-39" value="&amp;nbsp; &amp;nbsp; &amp;nbsp;" style="text;html=1;align=center;verticalAlign=middle;resizable=0;points=[];autosize=1;strokeColor=none;" parent="1" vertex="1">
          <mxGeometry x="655" y="420" width="30" height="20" as="geometry" />
        </mxCell>
        <mxCell id="hISglGd7XBu-Tsz0KGXN-4" style="edgeStyle=orthogonalEdgeStyle;rounded=0;orthogonalLoop=1;jettySize=auto;html=1;" parent="1" source="hISglGd7XBu-Tsz0KGXN-1" target="hISglGd7XBu-Tsz0KGXN-3" edge="1">
          <mxGeometry relative="1" as="geometry" />
        </mxCell>
        <mxCell id="hISglGd7XBu-Tsz0KGXN-1" value="GIT" style="whiteSpace=wrap;html=1;aspect=fixed;" parent="1" vertex="1">
          <mxGeometry x="220" y="320" width="80" height="80" as="geometry" />
        </mxCell>
        <mxCell id="hISglGd7XBu-Tsz0KGXN-3" value="HTTP/HTTPS&lt;br&gt;Commitzen/Commitlint&lt;br&gt;Local, Session &amp;amp; Cookies" style="text;html=1;strokeColor=none;fillColor=none;align=center;verticalAlign=middle;whiteSpace=wrap;rounded=0;" parent="1" vertex="1">
          <mxGeometry x="10" y="340" width="180" height="41" as="geometry" />
        </mxCell>
        <mxCell id="3GDLqbfNz6WAspBwxzbK-1" value="" style="whiteSpace=wrap;html=1;aspect=fixed;fillColor=#dae8fc;strokeColor=#6c8ebf;" parent="1" vertex="1">
          <mxGeometry x="715" y="60" width="40" height="40" as="geometry" />
        </mxCell>
        <mxCell id="3GDLqbfNz6WAspBwxzbK-2" value="Progress" style="text;html=1;align=center;verticalAlign=middle;resizable=0;points=[];autosize=1;strokeColor=none;" parent="1" vertex="1">
          <mxGeometry x="770" y="70" width="60" height="20" as="geometry" />
        </mxCell>
        <mxCell id="3GDLqbfNz6WAspBwxzbK-3" value="" style="whiteSpace=wrap;html=1;aspect=fixed;fillColor=#fff2cc;strokeColor=#d6b656;" parent="1" vertex="1">
          <mxGeometry x="715" y="10" width="40" height="40" as="geometry" />
        </mxCell>
        <mxCell id="3GDLqbfNz6WAspBwxzbK-4" value="Backlog" style="text;html=1;align=center;verticalAlign=middle;resizable=0;points=[];autosize=1;strokeColor=none;" parent="1" vertex="1">
          <mxGeometry x="770" y="20" width="60" height="20" as="geometry" />
        </mxCell>
        <mxCell id="3GDLqbfNz6WAspBwxzbK-5" value="" style="whiteSpace=wrap;html=1;aspect=fixed;fillColor=#d5e8d4;strokeColor=#82b366;" parent="1" vertex="1">
          <mxGeometry x="715" y="110" width="40" height="40" as="geometry" />
        </mxCell>
        <mxCell id="3GDLqbfNz6WAspBwxzbK-6" value="Done" style="text;html=1;align=center;verticalAlign=middle;resizable=0;points=[];autosize=1;strokeColor=none;" parent="1" vertex="1">
          <mxGeometry x="780" y="120" width="40" height="20" as="geometry" />
        </mxCell>
        <mxCell id="9mveYApbmtlLo5inXnCP-1" style="edgeStyle=orthogonalEdgeStyle;rounded=0;orthogonalLoop=1;jettySize=auto;html=1;exitX=0.5;exitY=1;exitDx=0;exitDy=0;" parent="1" source="6p1vlQ0GJCw1Co-W3nL5-15" target="6p1vlQ0GJCw1Co-W3nL5-15" edge="1">
          <mxGeometry relative="1" as="geometry" />
        </mxCell>
        <mxCell id="9mveYApbmtlLo5inXnCP-3" value="Unit Tests w/ Jest&lt;br&gt;Logic Exercises" style="text;html=1;strokeColor=none;fillColor=none;align=center;verticalAlign=middle;whiteSpace=wrap;rounded=0;" parent="1" vertex="1">
          <mxGeometry x="530" y="280" width="110" height="20" as="geometry" />
        </mxCell>
        <mxCell id="wWRz1BCfIXu3STuvE5zI-1" value="Async &amp;amp; Sync" style="text;html=1;strokeColor=none;fillColor=none;align=center;verticalAlign=middle;whiteSpace=wrap;rounded=0;" parent="1" vertex="1">
          <mxGeometry x="530" y="210" width="110" height="32" as="geometry" />
        </mxCell>
        <mxCell id="wWRz1BCfIXu3STuvE5zI-2" value="&amp;nbsp;" style="text;html=1;align=center;verticalAlign=middle;resizable=0;points=[];autosize=1;rotation=90;" parent="wWRz1BCfIXu3STuvE5zI-1" vertex="1">
          <mxGeometry x="55" y="12" width="20" height="20" as="geometry" />
        </mxCell>
        <mxCell id="rWHuO9RdlTMYaWmrahyg-1" value="Requests (Axios &amp;amp; Fetch)" style="text;html=1;strokeColor=none;fillColor=none;align=center;verticalAlign=middle;whiteSpace=wrap;rounded=0;" parent="1" vertex="1">
          <mxGeometry x="530" y="242" width="160" height="32" as="geometry" />
        </mxCell>
        <mxCell id="rWHuO9RdlTMYaWmrahyg-2" value="&amp;nbsp;" style="text;html=1;align=center;verticalAlign=middle;resizable=0;points=[];autosize=1;rotation=90;" parent="rWHuO9RdlTMYaWmrahyg-1" vertex="1">
          <mxGeometry x="80" y="12" width="20" height="20" as="geometry" />
        </mxCell>
        <mxCell id="rWHuO9RdlTMYaWmrahyg-5" style="edgeStyle=orthogonalEdgeStyle;rounded=0;orthogonalLoop=1;jettySize=auto;html=1;" parent="1" source="6p1vlQ0GJCw1Co-W3nL5-13" target="rWHuO9RdlTMYaWmrahyg-1" edge="1">
          <mxGeometry relative="1" as="geometry">
            <mxPoint x="500" y="250" as="sourcePoint" />
            <mxPoint x="540" y="236" as="targetPoint" />
          </mxGeometry>
        </mxCell>
        <mxCell id="_Mu3jGa9Z7ArrBiEgI-9-4" style="edgeStyle=orthogonalEdgeStyle;rounded=0;orthogonalLoop=1;jettySize=auto;html=1;" edge="1" parent="1" source="_Mu3jGa9Z7ArrBiEgI-9-1" target="_Mu3jGa9Z7ArrBiEgI-9-3">
          <mxGeometry relative="1" as="geometry" />
        </mxCell>
        <mxCell id="_Mu3jGa9Z7ArrBiEgI-9-60" style="edgeStyle=orthogonalEdgeStyle;rounded=0;orthogonalLoop=1;jettySize=auto;html=1;fontColor=#000000;" edge="1" parent="1" source="_Mu3jGa9Z7ArrBiEgI-9-1" target="_Mu3jGa9Z7ArrBiEgI-9-21">
          <mxGeometry relative="1" as="geometry" />
        </mxCell>
        <mxCell id="_Mu3jGa9Z7ArrBiEgI-9-1" value="TypeScript" style="whiteSpace=wrap;html=1;aspect=fixed;" vertex="1" parent="1">
          <mxGeometry x="410" y="560" width="80" height="80" as="geometry" />
        </mxCell>
        <mxCell id="_Mu3jGa9Z7ArrBiEgI-9-3" value="Enviroment, Types, Interfaces" style="text;html=1;align=center;verticalAlign=middle;whiteSpace=wrap;rounded=0;" vertex="1" parent="1">
          <mxGeometry x="525" y="550" width="120" height="100" as="geometry" />
        </mxCell>
        <mxCell id="_Mu3jGa9Z7ArrBiEgI-9-7" style="edgeStyle=orthogonalEdgeStyle;rounded=0;orthogonalLoop=1;jettySize=auto;html=1;" edge="1" parent="1" source="_Mu3jGa9Z7ArrBiEgI-9-21" target="_Mu3jGa9Z7ArrBiEgI-9-23">
          <mxGeometry relative="1" as="geometry" />
        </mxCell>
        <mxCell id="_Mu3jGa9Z7ArrBiEgI-9-8" style="edgeStyle=orthogonalEdgeStyle;rounded=0;orthogonalLoop=1;jettySize=auto;html=1;" edge="1" parent="1" source="_Mu3jGa9Z7ArrBiEgI-9-21" target="_Mu3jGa9Z7ArrBiEgI-9-26">
          <mxGeometry relative="1" as="geometry" />
        </mxCell>
        <mxCell id="_Mu3jGa9Z7ArrBiEgI-9-9" style="edgeStyle=orthogonalEdgeStyle;rounded=0;orthogonalLoop=1;jettySize=auto;html=1;" edge="1" parent="1" source="_Mu3jGa9Z7ArrBiEgI-9-21" target="_Mu3jGa9Z7ArrBiEgI-9-29">
          <mxGeometry relative="1" as="geometry">
            <Array as="points">
              <mxPoint x="400" y="890" />
            </Array>
          </mxGeometry>
        </mxCell>
        <mxCell id="_Mu3jGa9Z7ArrBiEgI-9-10" style="edgeStyle=orthogonalEdgeStyle;rounded=0;orthogonalLoop=1;jettySize=auto;html=1;" edge="1" parent="1" source="_Mu3jGa9Z7ArrBiEgI-9-21" target="_Mu3jGa9Z7ArrBiEgI-9-32">
          <mxGeometry relative="1" as="geometry">
            <Array as="points">
              <mxPoint x="500" y="890" />
            </Array>
          </mxGeometry>
        </mxCell>
        <mxCell id="_Mu3jGa9Z7ArrBiEgI-9-11" style="edgeStyle=orthogonalEdgeStyle;rounded=0;orthogonalLoop=1;jettySize=auto;html=1;" edge="1" parent="1" source="_Mu3jGa9Z7ArrBiEgI-9-21" target="_Mu3jGa9Z7ArrBiEgI-9-35">
          <mxGeometry relative="1" as="geometry">
            <Array as="points">
              <mxPoint x="420" y="995" />
            </Array>
          </mxGeometry>
        </mxCell>
        <mxCell id="_Mu3jGa9Z7ArrBiEgI-9-12" style="edgeStyle=orthogonalEdgeStyle;rounded=0;orthogonalLoop=1;jettySize=auto;html=1;" edge="1" parent="1" source="_Mu3jGa9Z7ArrBiEgI-9-21" target="_Mu3jGa9Z7ArrBiEgI-9-37">
          <mxGeometry relative="1" as="geometry">
            <Array as="points">
              <mxPoint x="480" y="1000" />
            </Array>
            <mxPoint x="590" y="1020" as="targetPoint" />
          </mxGeometry>
        </mxCell>
        <mxCell id="_Mu3jGa9Z7ArrBiEgI-9-13" style="edgeStyle=orthogonalEdgeStyle;rounded=0;orthogonalLoop=1;jettySize=auto;html=1;" edge="1" parent="1" source="_Mu3jGa9Z7ArrBiEgI-9-21" target="_Mu3jGa9Z7ArrBiEgI-9-38">
          <mxGeometry relative="1" as="geometry">
            <Array as="points">
              <mxPoint x="440" y="1100" />
            </Array>
          </mxGeometry>
        </mxCell>
        <mxCell id="_Mu3jGa9Z7ArrBiEgI-9-14" style="edgeStyle=orthogonalEdgeStyle;rounded=0;orthogonalLoop=1;jettySize=auto;html=1;" edge="1" parent="1" source="_Mu3jGa9Z7ArrBiEgI-9-21" target="_Mu3jGa9Z7ArrBiEgI-9-40">
          <mxGeometry relative="1" as="geometry">
            <Array as="points">
              <mxPoint x="460" y="1100" />
            </Array>
          </mxGeometry>
        </mxCell>
        <mxCell id="_Mu3jGa9Z7ArrBiEgI-9-15" style="edgeStyle=orthogonalEdgeStyle;rounded=0;orthogonalLoop=1;jettySize=auto;html=1;" edge="1" parent="1" target="_Mu3jGa9Z7ArrBiEgI-9-43">
          <mxGeometry relative="1" as="geometry">
            <mxPoint x="435" y="740" as="sourcePoint" />
            <mxPoint x="390" y="1220" as="targetPoint" />
            <Array as="points">
              <mxPoint x="450" y="740" />
              <mxPoint x="450" y="1202" />
            </Array>
          </mxGeometry>
        </mxCell>
        <mxCell id="_Mu3jGa9Z7ArrBiEgI-9-16" style="edgeStyle=orthogonalEdgeStyle;rounded=0;orthogonalLoop=1;jettySize=auto;html=1;" edge="1" parent="1" source="_Mu3jGa9Z7ArrBiEgI-9-21" target="_Mu3jGa9Z7ArrBiEgI-9-46">
          <mxGeometry relative="1" as="geometry">
            <Array as="points">
              <mxPoint x="450" y="1202" />
            </Array>
          </mxGeometry>
        </mxCell>
        <mxCell id="_Mu3jGa9Z7ArrBiEgI-9-17" style="edgeStyle=orthogonalEdgeStyle;rounded=0;orthogonalLoop=1;jettySize=auto;html=1;" edge="1" parent="1" source="_Mu3jGa9Z7ArrBiEgI-9-21" target="_Mu3jGa9Z7ArrBiEgI-9-49">
          <mxGeometry relative="1" as="geometry">
            <Array as="points">
              <mxPoint x="450" y="1300" />
            </Array>
          </mxGeometry>
        </mxCell>
        <mxCell id="_Mu3jGa9Z7ArrBiEgI-9-18" style="edgeStyle=orthogonalEdgeStyle;rounded=0;orthogonalLoop=1;jettySize=auto;html=1;" edge="1" parent="1" source="_Mu3jGa9Z7ArrBiEgI-9-21" target="_Mu3jGa9Z7ArrBiEgI-9-52">
          <mxGeometry relative="1" as="geometry">
            <Array as="points">
              <mxPoint x="450" y="1300" />
            </Array>
          </mxGeometry>
        </mxCell>
        <mxCell id="_Mu3jGa9Z7ArrBiEgI-9-19" style="edgeStyle=orthogonalEdgeStyle;rounded=0;orthogonalLoop=1;jettySize=auto;html=1;" edge="1" parent="1" source="_Mu3jGa9Z7ArrBiEgI-9-21" target="_Mu3jGa9Z7ArrBiEgI-9-55">
          <mxGeometry relative="1" as="geometry">
            <Array as="points">
              <mxPoint x="450" y="1420" />
            </Array>
          </mxGeometry>
        </mxCell>
        <mxCell id="_Mu3jGa9Z7ArrBiEgI-9-20" style="edgeStyle=orthogonalEdgeStyle;rounded=0;orthogonalLoop=1;jettySize=auto;html=1;" edge="1" parent="1" source="_Mu3jGa9Z7ArrBiEgI-9-21" target="_Mu3jGa9Z7ArrBiEgI-9-57">
          <mxGeometry relative="1" as="geometry">
            <Array as="points">
              <mxPoint x="450" y="1420" />
            </Array>
          </mxGeometry>
        </mxCell>
        <mxCell id="_Mu3jGa9Z7ArrBiEgI-9-21" value="React" style="rounded=0;whiteSpace=wrap;html=1;" vertex="1" parent="1">
          <mxGeometry x="390" y="680" width="120" height="60" as="geometry" />
        </mxCell>
        <mxCell id="_Mu3jGa9Z7ArrBiEgI-9-22" style="edgeStyle=orthogonalEdgeStyle;rounded=0;orthogonalLoop=1;jettySize=auto;html=1;" edge="1" parent="1" source="_Mu3jGa9Z7ArrBiEgI-9-23" target="_Mu3jGa9Z7ArrBiEgI-9-24">
          <mxGeometry relative="1" as="geometry" />
        </mxCell>
        <mxCell id="_Mu3jGa9Z7ArrBiEgI-9-23" value="Componentes" style="whiteSpace=wrap;html=1;aspect=fixed;" vertex="1" parent="1">
          <mxGeometry x="259" y="740" width="80" height="80" as="geometry" />
        </mxCell>
        <mxCell id="_Mu3jGa9Z7ArrBiEgI-9-24" value="Functional/Class&lt;br&gt;Life Cycle&lt;br&gt;Conditional Rendering" style="text;html=1;strokeColor=none;fillColor=none;align=center;verticalAlign=middle;whiteSpace=wrap;rounded=0;" vertex="1" parent="1">
          <mxGeometry x="80" y="765" width="152" height="30" as="geometry" />
        </mxCell>
        <mxCell id="_Mu3jGa9Z7ArrBiEgI-9-25" style="edgeStyle=orthogonalEdgeStyle;rounded=0;orthogonalLoop=1;jettySize=auto;html=1;" edge="1" parent="1" source="_Mu3jGa9Z7ArrBiEgI-9-26" target="_Mu3jGa9Z7ArrBiEgI-9-27">
          <mxGeometry relative="1" as="geometry" />
        </mxCell>
        <mxCell id="_Mu3jGa9Z7ArrBiEgI-9-26" value="Hooks" style="whiteSpace=wrap;html=1;aspect=fixed;" vertex="1" parent="1">
          <mxGeometry x="560" y="740" width="80" height="80" as="geometry" />
        </mxCell>
        <mxCell id="_Mu3jGa9Z7ArrBiEgI-9-27" value="useState&lt;br&gt;useEffect/useCallback&lt;br&gt;useRef&lt;br&gt;useMemo&lt;br&gt;useReducer" style="text;html=1;strokeColor=none;fillColor=none;align=center;verticalAlign=middle;whiteSpace=wrap;rounded=0;" vertex="1" parent="1">
          <mxGeometry x="670" y="765" width="152" height="30" as="geometry" />
        </mxCell>
        <mxCell id="_Mu3jGa9Z7ArrBiEgI-9-28" style="edgeStyle=orthogonalEdgeStyle;rounded=0;orthogonalLoop=1;jettySize=auto;html=1;" edge="1" parent="1" source="_Mu3jGa9Z7ArrBiEgI-9-29" target="_Mu3jGa9Z7ArrBiEgI-9-30">
          <mxGeometry relative="1" as="geometry" />
        </mxCell>
        <mxCell id="_Mu3jGa9Z7ArrBiEgI-9-29" value="Gerenciamento de Estado" style="whiteSpace=wrap;html=1;aspect=fixed;" vertex="1" parent="1">
          <mxGeometry x="259" y="850" width="80" height="80" as="geometry" />
        </mxCell>
        <mxCell id="_Mu3jGa9Z7ArrBiEgI-9-30" value="ContextAPI&lt;br&gt;Redux" style="text;html=1;strokeColor=none;fillColor=none;align=center;verticalAlign=middle;whiteSpace=wrap;rounded=0;" vertex="1" parent="1">
          <mxGeometry x="70" y="875" width="152" height="30" as="geometry" />
        </mxCell>
        <mxCell id="_Mu3jGa9Z7ArrBiEgI-9-31" style="edgeStyle=orthogonalEdgeStyle;rounded=0;orthogonalLoop=1;jettySize=auto;html=1;" edge="1" parent="1" source="_Mu3jGa9Z7ArrBiEgI-9-32" target="_Mu3jGa9Z7ArrBiEgI-9-33">
          <mxGeometry relative="1" as="geometry" />
        </mxCell>
        <mxCell id="_Mu3jGa9Z7ArrBiEgI-9-32" value="Styling" style="whiteSpace=wrap;html=1;aspect=fixed;" vertex="1" parent="1">
          <mxGeometry x="560" y="850" width="80" height="80" as="geometry" />
        </mxCell>
        <mxCell id="_Mu3jGa9Z7ArrBiEgI-9-33" value="Styled Components&lt;br&gt;Fairplay DS" style="text;html=1;strokeColor=none;fillColor=none;align=center;verticalAlign=middle;whiteSpace=wrap;rounded=0;" vertex="1" parent="1">
          <mxGeometry x="670" y="875" width="152" height="30" as="geometry" />
        </mxCell>
        <mxCell id="_Mu3jGa9Z7ArrBiEgI-9-34" style="edgeStyle=orthogonalEdgeStyle;rounded=0;orthogonalLoop=1;jettySize=auto;html=1;" edge="1" parent="1" source="_Mu3jGa9Z7ArrBiEgI-9-35" target="_Mu3jGa9Z7ArrBiEgI-9-36">
          <mxGeometry relative="1" as="geometry" />
        </mxCell>
        <mxCell id="_Mu3jGa9Z7ArrBiEgI-9-35" value="General" style="whiteSpace=wrap;html=1;aspect=fixed;" vertex="1" parent="1">
          <mxGeometry x="260" y="955" width="80" height="80" as="geometry" />
        </mxCell>
        <mxCell id="_Mu3jGa9Z7ArrBiEgI-9-36" value="React Router&lt;br&gt;React Testing Library" style="text;html=1;strokeColor=none;fillColor=none;align=center;verticalAlign=middle;whiteSpace=wrap;rounded=0;" vertex="1" parent="1">
          <mxGeometry x="82" y="980" width="152" height="30" as="geometry" />
        </mxCell>
        <mxCell id="_Mu3jGa9Z7ArrBiEgI-9-37" value="Next" style="whiteSpace=wrap;html=1;aspect=fixed;" vertex="1" parent="1">
          <mxGeometry x="560" y="955" width="80" height="80" as="geometry" />
        </mxCell>
        <mxCell id="_Mu3jGa9Z7ArrBiEgI-9-38" value="PWA" style="whiteSpace=wrap;html=1;aspect=fixed;" vertex="1" parent="1">
          <mxGeometry x="260" y="1060" width="80" height="80" as="geometry" />
        </mxCell>
        <mxCell id="_Mu3jGa9Z7ArrBiEgI-9-39" style="edgeStyle=orthogonalEdgeStyle;rounded=0;orthogonalLoop=1;jettySize=auto;html=1;" edge="1" parent="1" source="_Mu3jGa9Z7ArrBiEgI-9-40" target="_Mu3jGa9Z7ArrBiEgI-9-41">
          <mxGeometry relative="1" as="geometry" />
        </mxCell>
        <mxCell id="_Mu3jGa9Z7ArrBiEgI-9-40" value="Frameworks for Apps" style="whiteSpace=wrap;html=1;aspect=fixed;" vertex="1" parent="1">
          <mxGeometry x="560" y="1060" width="80" height="80" as="geometry" />
        </mxCell>
        <mxCell id="_Mu3jGa9Z7ArrBiEgI-9-41" value="Flutter&lt;br&gt;Electron&lt;br&gt;React Native" style="text;html=1;strokeColor=none;fillColor=none;align=center;verticalAlign=middle;whiteSpace=wrap;rounded=0;" vertex="1" parent="1">
          <mxGeometry x="670" y="1085" width="152" height="30" as="geometry" />
        </mxCell>
        <mxCell id="_Mu3jGa9Z7ArrBiEgI-9-42" style="edgeStyle=orthogonalEdgeStyle;rounded=0;orthogonalLoop=1;jettySize=auto;html=1;" edge="1" parent="1" source="_Mu3jGa9Z7ArrBiEgI-9-43" target="_Mu3jGa9Z7ArrBiEgI-9-44">
          <mxGeometry relative="1" as="geometry" />
        </mxCell>
        <mxCell id="_Mu3jGa9Z7ArrBiEgI-9-43" value="Testes" style="whiteSpace=wrap;html=1;aspect=fixed;" vertex="1" parent="1">
          <mxGeometry x="259" y="1162" width="80" height="80" as="geometry" />
        </mxCell>
        <mxCell id="_Mu3jGa9Z7ArrBiEgI-9-44" value="E2E (Cypress)&lt;br&gt;Testes A/B&lt;br&gt;TDD" style="text;html=1;strokeColor=none;fillColor=none;align=center;verticalAlign=middle;whiteSpace=wrap;rounded=0;" vertex="1" parent="1">
          <mxGeometry x="91" y="1187" width="130" height="30" as="geometry" />
        </mxCell>
        <mxCell id="_Mu3jGa9Z7ArrBiEgI-9-45" style="edgeStyle=orthogonalEdgeStyle;rounded=0;orthogonalLoop=1;jettySize=auto;html=1;" edge="1" parent="1" source="_Mu3jGa9Z7ArrBiEgI-9-46" target="_Mu3jGa9Z7ArrBiEgI-9-47">
          <mxGeometry relative="1" as="geometry" />
        </mxCell>
        <mxCell id="_Mu3jGa9Z7ArrBiEgI-9-46" value="Performance" style="whiteSpace=wrap;html=1;aspect=fixed;" vertex="1" parent="1">
          <mxGeometry x="560" y="1162" width="80" height="80" as="geometry" />
        </mxCell>
        <mxCell id="_Mu3jGa9Z7ArrBiEgI-9-47" value="Web Vitals" style="text;html=1;strokeColor=none;fillColor=none;align=center;verticalAlign=middle;whiteSpace=wrap;rounded=0;" vertex="1" parent="1">
          <mxGeometry x="681" y="1187" width="130" height="30" as="geometry" />
        </mxCell>
        <mxCell id="_Mu3jGa9Z7ArrBiEgI-9-48" style="edgeStyle=orthogonalEdgeStyle;rounded=0;orthogonalLoop=1;jettySize=auto;html=1;" edge="1" parent="1" source="_Mu3jGa9Z7ArrBiEgI-9-49" target="_Mu3jGa9Z7ArrBiEgI-9-50">
          <mxGeometry relative="1" as="geometry" />
        </mxCell>
        <mxCell id="_Mu3jGa9Z7ArrBiEgI-9-49" value="Monitoramento" style="whiteSpace=wrap;html=1;aspect=fixed;" vertex="1" parent="1">
          <mxGeometry x="259" y="1260" width="80" height="80" as="geometry" />
        </mxCell>
        <mxCell id="_Mu3jGa9Z7ArrBiEgI-9-50" value="Speed Curve&lt;br&gt;Calibre&lt;br&gt;Sentry&lt;br&gt;DataDog" style="text;html=1;strokeColor=none;fillColor=none;align=center;verticalAlign=middle;whiteSpace=wrap;rounded=0;" vertex="1" parent="1">
          <mxGeometry x="91" y="1285" width="130" height="30" as="geometry" />
        </mxCell>
        <mxCell id="_Mu3jGa9Z7ArrBiEgI-9-51" style="edgeStyle=orthogonalEdgeStyle;rounded=0;orthogonalLoop=1;jettySize=auto;html=1;" edge="1" parent="1" source="_Mu3jGa9Z7ArrBiEgI-9-52" target="_Mu3jGa9Z7ArrBiEgI-9-53">
          <mxGeometry relative="1" as="geometry" />
        </mxCell>
        <mxCell id="_Mu3jGa9Z7ArrBiEgI-9-52" value="Métricas" style="whiteSpace=wrap;html=1;aspect=fixed;" vertex="1" parent="1">
          <mxGeometry x="560" y="1260" width="80" height="80" as="geometry" />
        </mxCell>
        <mxCell id="_Mu3jGa9Z7ArrBiEgI-9-53" value="Google Analytics [G.A.] Google Tag Manager [G.T.M.]" style="text;html=1;strokeColor=none;fillColor=none;align=center;verticalAlign=middle;whiteSpace=wrap;rounded=0;" vertex="1" parent="1">
          <mxGeometry x="681" y="1285" width="130" height="30" as="geometry" />
        </mxCell>
        <mxCell id="_Mu3jGa9Z7ArrBiEgI-9-54" style="edgeStyle=orthogonalEdgeStyle;rounded=0;orthogonalLoop=1;jettySize=auto;html=1;" edge="1" parent="1" source="_Mu3jGa9Z7ArrBiEgI-9-55" target="_Mu3jGa9Z7ArrBiEgI-9-58">
          <mxGeometry relative="1" as="geometry" />
        </mxCell>
        <mxCell id="_Mu3jGa9Z7ArrBiEgI-9-55" value="DevOps" style="whiteSpace=wrap;html=1;aspect=fixed;" vertex="1" parent="1">
          <mxGeometry x="259" y="1380" width="80" height="80" as="geometry" />
        </mxCell>
        <mxCell id="_Mu3jGa9Z7ArrBiEgI-9-56" style="edgeStyle=orthogonalEdgeStyle;rounded=0;orthogonalLoop=1;jettySize=auto;html=1;" edge="1" parent="1" source="_Mu3jGa9Z7ArrBiEgI-9-57" target="_Mu3jGa9Z7ArrBiEgI-9-59">
          <mxGeometry relative="1" as="geometry" />
        </mxCell>
        <mxCell id="_Mu3jGa9Z7ArrBiEgI-9-57" value="CDN" style="whiteSpace=wrap;html=1;aspect=fixed;" vertex="1" parent="1">
          <mxGeometry x="560" y="1380" width="80" height="80" as="geometry" />
        </mxCell>
        <mxCell id="_Mu3jGa9Z7ArrBiEgI-9-58" value="&lt;div&gt;Deploy de aplicações&lt;/div&gt;&lt;div&gt;Ferramentas de CI (Github Actions, Travis, CircleCI)&lt;/div&gt;&lt;div&gt;Buckets (S3)&lt;/div&gt;&lt;div&gt;Lambdas&lt;/div&gt;&lt;div&gt;Docker&lt;/div&gt;&lt;div&gt;Kubernetes&lt;/div&gt;" style="text;html=1;strokeColor=none;fillColor=none;align=center;verticalAlign=middle;whiteSpace=wrap;rounded=0;" vertex="1" parent="1">
          <mxGeometry x="90" y="1405" width="133" height="30" as="geometry" />
        </mxCell>
        <mxCell id="_Mu3jGa9Z7ArrBiEgI-9-59" value="Cloudfront, Akamai, Cloudfare" style="text;html=1;strokeColor=none;fillColor=none;align=center;verticalAlign=middle;whiteSpace=wrap;rounded=0;" vertex="1" parent="1">
          <mxGeometry x="685" y="1405" width="130" height="30" as="geometry" />
        </mxCell>
      </root>
    </mxGraphModel>
  </diagram>
</mxfile>
